<?xml version="1.0" encoding="utf-8"?>
<!-- Generator: Adobe Illustrator 19.2.1, SVG Export Plug-In . SVG Version: 6.00 Build 0)  -->
<svg version="1.1" id="layer" xmlns="http://www.w3.org/2000/svg" xmlns:xlink="http://www.w3.org/1999/xlink" x="0px" y="0px"
	 viewBox="0 0 700 652" style="enable-background:new 0 0 652 652;background-color:black" xml:space="preserve">
<style type="text/css">
	.st0{fill:#3D4647;}
	.st1{fill:#5BB73B;}
	.st2{fill:#231F20;}
	.st3{fill:#ffffff;}
	.heavy {fill:#3D4647; font: italic bold 100px courier; }
</style>
<g id="Layer_2">
	<g>
		<g>
			<g>
				<path class="st0" d="M217.2,322.4l23.5,32.9h-10l-19.1-27.1l-10.3,10.1v17.3h-8v-76.5h8.2v48.8l26.1-27h11.3L217.2,322.4z"/>
				<path class="st0" d="M269.2,348.9c7.3,0,12.5-3,15.8-9.2h9c-1.8,5-4.8,9-9,12s-9.3,4.5-15.8,4.5c-8.2,0-14.8-2.7-20-8.2
					c-5-5.3-7.5-12-7.5-20s2.5-14.6,7.2-20c5.2-5.5,11.6-8.2,19.8-8.2c8.2,0,14.6,2.7,19.8,8.2c4.8,5.3,7.2,11.8,7.2,20v3.3H250
					c0.7,5,2.5,9.2,6,12.5C259.5,347.2,263.8,348.9,269.2,348.9z M268.5,307.5c-5,0-9.2,1.5-12.5,4.7c-3.2,3-5.2,6.8-5.8,11.6h36.9
					c-0.8-4.8-2.7-8.7-5.8-11.6C277.8,309.1,273.5,307.5,268.5,307.5z"/>
				<path class="st0" d="M313.7,309.8c4.3-6.3,10.8-9.5,19.5-9.5c7.8,0,14.1,2.7,19.1,8.2c4.8,5.3,7.3,12,7.3,20
					c0,7.8-2.5,14.5-7.3,20c-4.8,5.5-11.3,8.2-19.5,8.2s-14.5-3.2-19-9.7v30.4h-8.2V301h8.2L313.7,309.8L313.7,309.8z M332,307.5
					c-5.8,0-10.5,2-14,6c-3.3,3.8-4.8,8.8-4.8,14.5c0,5.8,1.7,10.8,4.8,14.5c3.5,4.2,8,6,14,6c5.8,0,10.5-2,14.1-6
					c3.5-3.8,5.2-8.8,5.2-14.5c0-5.8-1.7-10.8-5.2-14.5C342.7,309.6,338,307.5,332,307.5z"/>
				<path class="st0" d="M402.4,311.9l-13.6,43.4h-9.3l-17.1-54.2h8.8l13,44.3l13.8-44.3h9l13.8,44.3l13-44.3h8.8l-17.1,54.2h-9.3
					L402.4,311.9z"/>
				<path class="st0" d="M491.1,346.7c-4.3,6.3-10.8,9.5-19.5,9.5c-7.8,0-14.1-2.7-19.1-8.2c-4.8-5.3-7.2-12-7.2-20
					c0-7.8,2.5-14.5,7.2-20c5-5.5,11.5-8.2,19.6-8.2c8.2,0,14.5,3.2,19,9.7v-8.8h8.2v54.4h-8.2L491.1,346.7L491.1,346.7z
					 M472.8,348.9c5.8,0,10.5-2,14-6c3.3-3.8,4.8-8.8,4.8-14.5c0-5.8-1.7-10.8-4.8-14.5c-3.5-4.2-8-6-14-6c-5.8,0-10.6,2-14.1,6
					c-3.5,3.8-5.2,8.8-5.2,14.5c0,5.8,1.7,10.8,5.2,14.5C462.2,346.9,466.8,348.9,472.8,348.9z"/>
				<path class="st0" d="M541.5,300.1v8.2h-0.8c-5.8,0-10.6,2.5-14.3,7.2c-3.5,4.5-5.3,9.8-5.3,16v23.8h-8.2V301h8.2v13.3
					c1.8-5.7,5.5-9.8,11.3-12.5c2.5-1.2,5.3-1.8,8.8-1.8L541.5,300.1L541.5,300.1z"/>
				<path class="st0" d="M570.8,348.9c7.3,0,12.5-3,15.8-9.2h9c-1.8,5-4.8,9-9,12s-9.3,4.5-15.8,4.5c-8.2,0-14.8-2.7-20-8.2
					c-5-5.3-7.5-12-7.5-20s2.5-14.6,7.2-20c5.2-5.5,11.6-8.2,19.8-8.2s14.6,2.7,19.8,8.2c4.8,5.3,7.2,11.8,7.2,20v3.3h-45.6
					c0.7,5,2.5,9.2,6,12.5S565.5,348.9,570.8,348.9z M570.2,307.5c-5,0-9.2,1.5-12.5,4.7c-3.2,3-5.2,6.8-5.8,11.6h36.9
					c-0.8-4.8-2.7-8.7-5.8-11.6C579.5,309.1,575.1,307.5,570.2,307.5z"/>
			</g>
		</g>
		<g>
			<polygon class="st0" points="81.6,251.5 21.4,286 21.4,297.5 142,297.5 142,286 			"/>
			<polygon class="st0" points="81.6,390.7 142,356.2 142,344.7 21.4,344.7 21.4,356.2 			"/>
			<polygon class="st1" points="142,335.2 81.6,335.2 21.4,335.2 21.4,307 142,307 			"/>
		</g>
	</g>
</g>
<path class="st0" d="M612.8,301.7c1.2,0,2.3,0.2,3.4,0.7c1.1,0.5,2,1.1,2.7,1.9c0.8,0.8,1.4,1.7,1.9,2.7c0.5,1.1,0.7,2.2,0.7,3.4
	c0,1.2-0.2,2.3-0.7,3.4c-0.5,1-1.1,2-1.9,2.7c-0.8,0.8-1.7,1.4-2.7,1.9c-1,0.5-2.2,0.7-3.4,0.7c-1.2,0-2.3-0.2-3.4-0.7
	c-1-0.5-2-1.1-2.7-1.9c-0.8-0.8-1.4-1.7-1.9-2.7c-0.5-1-0.7-2.2-0.7-3.4s0.2-2.3,0.7-3.4c0.5-1,1.1-2,1.9-2.7
	c0.8-0.8,1.7-1.4,2.7-1.9C610.4,302,611.6,301.7,612.8,301.7z M612.8,317.8c2.1,0,3.8-0.7,5.2-2.2c0.7-0.7,1.2-1.5,1.6-2.4
	c0.4-0.9,0.6-1.9,0.6-2.9c0-1-0.2-2-0.6-2.9c-0.4-0.9-0.9-1.7-1.6-2.4c-1.4-1.4-3.2-2.2-5.2-2.2c-2.1,0-3.8,0.7-5.2,2.2
	c-1.4,1.5-2.2,3.2-2.2,5.2c0,1,0.2,2,0.6,2.9c0.4,0.9,0.9,1.7,1.6,2.4C608.9,317.1,610.7,317.8,612.8,317.8z M617,308.4
	c0,0.6-0.2,1.1-0.5,1.5c-0.3,0.4-0.8,0.8-1.4,0.9c0.9,0.3,1.5,1,1.7,2.3c0,0.3,0.1,0.6,0.1,0.9v1.2h-1.7v-1c0-0.7-0.1-1.2-0.2-1.6
	c-0.3-0.7-0.9-1-1.7-1h-2.4v3.5H609v-9.6h4.1c1.4,0,2.4,0.3,3,0.8C616.7,306.9,617,307.6,617,308.4z M613,310.2
	c0.7,0,1.3-0.1,1.7-0.4c0.4-0.3,0.6-0.6,0.6-1.1c0-0.5-0.2-0.9-0.5-1.1s-1-0.4-1.9-0.4h-2.1v3.1H613z"/>


<g class="st3" transform="scale(0.3) translate(240,130)">
	<g >
		<text x="285" y="1240" class="heavy">by</text>
		<g>
			<path d="M458.4,1274.5l11.1-8c4,7,11.5,11,20.1,11c10.1,0,17.7-4.8,17.7-11.7c0-8.3-11.8-13.3-22.3-17.8
				c-10.5-4.7-22.2-10.1-22.2-24.2c0-14.7,12.8-25,28.9-25c12.8,0,22.4,6.2,26.1,16l-10.5,7.2c-2.8-6.1-9-9.5-15.5-9.5
				c-8.2,0-14.8,5.1-14.8,11.5c0,7,8.3,9.5,19.2,14.2c14.2,6.2,25.2,13.1,25.2,27.2c0,15.9-13.8,26.2-32,26.2
				C474.7,1291.8,463.5,1284.9,458.4,1274.5z"/>
			<path d="M586.4,1245.5c0-25.3,21.1-46.5,46.4-46.5c11.6,0.2,22.4,5.1,31.2,13.7l-8.2,11.1c-6.3-6.3-14.5-10.5-23.3-10.5
				c-16.3,0-31.8,14.3-31.8,32.3c0,18.1,15.8,32.1,31.9,32.1c9.2,0,17.1-4.6,23.3-10.7l8.1,11.4c-7.7,7.6-17.6,13.5-31,13.5
				C607.5,1291.8,586.4,1270.8,586.4,1245.5z"/>
			<path d="M788.8,1276.7h-42.5l-6.1,13.7h-15.3l42.2-91.7h0.8l42.2,91.7h-15.3L788.8,1276.7z M783.3,1264.6l-15.8-35.1l-15.8,35.1
				H783.3z"/>
			<path d="M949.1,1245.5c0,27.6-17.8,44.8-46.3,44.8h-25.6v-89.8h25.6C931.3,1200.4,949.1,1217.7,949.1,1245.5z M934.8,1245.5
				c0-19.1-12.4-31-32.1-31h-11.5v61.8h11.6C922.5,1276.3,934.8,1264.4,934.8,1245.5z"/>
			<path d="M1067.4,1276.7h-42.5l-6.1,13.7h-15.3l42.2-91.7h0.8l42.2,91.7h-15.3L1067.4,1276.7z M1061.9,1264.6l-15.8-35.1
				l-15.8,35.1H1061.9z"/>
			<path d="M1227.7,1245.5c0,27.6-17.8,44.8-46.3,44.8h-25.6v-89.8h25.6C1209.9,1200.4,1227.7,1217.7,1227.7,1245.5z M1213.4,1245.5
				c0-19.1-12.4-31-32.1-31h-11.5v61.8h11.6C1201.1,1276.3,1213.4,1264.4,1213.4,1245.5z"/>
			<path d="M1293.4,1245.5c0-25.6,20.8-46.6,46.4-46.6c25.5,0,46.5,21,46.5,46.6c0,25.4-21,46.3-46.5,46.3
				C1314.3,1291.8,1293.4,1270.9,1293.4,1245.5z M1372,1245.4c0-17.8-14.5-32.3-32.3-32.3s-32.2,14.5-32.2,32.3
				c0,17.7,14.4,32.1,32.2,32.1S1372,1263.1,1372,1245.4z"/>
			<path d="M1541.6,1248.3c0,26.7-19.4,43.5-42.7,43.5c-26.1,0-46.9-20.8-46.9-46.3c0-25.5,20.8-46.5,46.4-46.5
				c11.3,0.1,24.2,5.5,32.7,13.8l-7.9,11.7c-7-6.9-16.5-11.3-25-11.3c-16.4,0-31.9,13.7-31.9,32.3c0,17.6,14,32.1,33.2,32.1
				c15.4,0,27-9.4,27-23.1v-0.3h-27.8v-12.9h42.5C1541.4,1243.3,1541.6,1245.8,1541.6,1248.3z"/>
		</g>
		<g transform="scale(0.5) translate(2500,1550)">
			<polygon class="st2" points="957.6,808.1 928.8,804.2 904.6,751.5 921.1,725.9 			"/>
			<path class="st3" d="M1112.9,905.9l-53.3-77.8l-134.8-18.5l-46.6-101.5l-53.3,127.4l13.3,31.8l-0.2,0.3
				c-50.4,80.2-66.8,102.3-102.6,186.5h123.1l90.9,108.6l62.9-100.7l-45.2-12.6c0,0,161.4,1.5,209.6-8.9
				c48.1-10.4,88.1-96.3,88.1-96.3L1112.9,905.9z M881.8,761.5l-25.9,67.4l9.6,13.3l-16.3,16.3l-12.6-23l42.2-100.7l34.8,77
				L881.8,761.5z M1005.5,897l-11.1-22.2l-11.9-10.4l46.7,5.9l25.9,34.1L1005.5,897z"/>
		</g>
	</g>
</g>

</svg>
